<svg id="Capa_1" enable-background="new 0 0 512 512" height="512" viewBox="0 0 512 512" width="512" xmlns="http://www.w3.org/2000/svg" xmlns:xlink="http://www.w3.org/1999/xlink"><linearGradient id="SVGID_1_" gradientUnits="userSpaceOnUse" x1="256" x2="256" y1="512" y2="0"><stop offset="0" stop-color="#addcff"/><stop offset=".5028" stop-color="#eaf6ff"/><stop offset="1" stop-color="#eaf6ff"/></linearGradient><linearGradient id="SVGID_2_" gradientUnits="userSpaceOnUse" x1="255.991" x2="255.991" y1="407" y2="105"><stop offset="0" stop-color="#00c0ff"/><stop offset="1" stop-color="#5558ff"/></linearGradient><g><g><circle cx="256" cy="256" fill="url(#SVGID_1_)" r="256"/></g><g><g><path d="m238.227 300.416c0 9.793 7.963 17.764 17.764 17.764s17.764-7.971 17.764-17.764c0-4.736-.433-2.968-17.764-65.132-17.647 63.299-17.764 60.599-17.764 65.132zm168.688-186.964c-.243-4.519-3.851-8.127-8.379-8.37-1.631-.121-39.969-1.9-63.267 21.407-.139.139-.278.278-.416.416-5.083-2.698-10.79-4.129-16.688-4.129h-124.348c-5.898 0-11.606 1.431-16.688 4.129-.139-.13-.26-.269-.399-.399-23.35-23.367-61.706-21.554-63.284-21.424-4.528.243-8.136 3.851-8.379 8.37-.087 1.622-1.926 39.943 21.424 63.293 7.338 7.338 16.827 12.898 28.259 16.576l-6.939 69.078c-7.286 72.452-7.286 72.661-7.286 73.546 0 12.854 7.008 24.538 17.955 30.766 2.082 22.561 21.129 40.29 44.219 40.29h106.584c23.09 0 42.137-17.729 44.219-40.29 10.946-6.228 17.955-17.911 17.955-30.766 0-.885 0-1.093-7.286-73.546l-6.939-69.078c11.432-3.669 20.921-9.238 28.259-16.576 23.35-23.35 21.511-61.671 21.424-63.293zm-204.216 115.908c4.905 0 8.882 3.976 8.882 8.882 0 4.905-3.977 8.882-8.882 8.882s-8.882-3.977-8.882-8.882c0-4.906 3.977-8.882 8.882-8.882zm17.764 142.112c-4.909 0-8.882-3.973-8.882-8.882 0-4.9-3.99-8.882-8.882-8.882-4.909 0-8.882-3.973-8.882-8.882 0-4.91 3.973-8.882 8.882-8.882 14.693 0 26.646 11.952 26.646 26.646 0 4.91-3.973 8.882-8.882 8.882zm35.528-35.528c-19.585 0-35.528-15.934-35.528-35.528 0-9.071 1.331-7.586 26.976-100.122 2.186-7.65 14.919-7.65 17.105 0 25.75 92.917 26.976 90.906 26.976 100.122-.001 19.594-15.944 35.528-35.529 35.528zm53.292 17.764c-4.892 0-8.882 3.981-8.882 8.882 0 4.91-3.973 8.882-8.882 8.882s-8.882-3.973-8.882-8.882c0-14.693 11.953-26.646 26.646-26.646 4.909 0 8.882 3.972 8.882 8.882 0 4.909-3.973 8.882-8.882 8.882zm0-106.584c-4.905 0-8.882-3.977-8.882-8.882 0-4.906 3.977-8.882 8.882-8.882s8.882 3.976 8.882 8.882c0 4.905-3.977 8.882-8.882 8.882z" fill="url(#SVGID_2_)"/></g></g></g></svg>