<svg id="Capa_1" enable-background="new 0 0 511.946 511.946" height="512" viewBox="0 0 511.946 511.946" width="512" xmlns="http://www.w3.org/2000/svg" xmlns:xlink="http://www.w3.org/1999/xlink"><linearGradient id="SVGID_1_" gradientUnits="userSpaceOnUse" x1="255.973" x2="255.973" y1="511.946" y2="0"><stop offset="0" stop-color="#5558ff"/><stop offset="1" stop-color="#00c0ff"/></linearGradient><linearGradient id="SVGID_2_" gradientUnits="userSpaceOnUse" x1="255.973" x2="255.973" y1="450.967" y2="152.19"><stop offset="0" stop-color="#addcff"/><stop offset=".5028" stop-color="#eaf6ff"/><stop offset="1" stop-color="#eaf6ff"/></linearGradient><g><g><g><path d="m511.856 14.22c-.41-7.632-6.504-13.726-14.15-14.136-2.813-.205-68.5-2.208-107.846 37.152-.234.234-.469.469-.703.703-8.584-4.556-18.223-6.973-28.184-6.973h-210c-9.961 0-19.6 2.417-28.184 6.973-.234-.22-.439-.454-.674-.674-39.433-39.462-105.238-37.401-107.874-37.181-7.647.41-13.741 6.504-14.151 14.136-.146 2.739-2.252 68.456 37.182 107.89 12.393 12.393 28.418 21.782 47.725 27.993l-11.719 116.66c-12.305 122.358-12.305 122.71-12.305 124.204 0 21.709 11.836 41.44 30.322 51.958 3.516 38.101 35.684 69.021 74.678 69.021h180c38.994 0 71.162-30.92 74.678-69.021 18.486-10.518 30.322-30.249 30.322-51.958 0-1.494 0-1.846-12.305-124.204l-11.719-116.66c19.307-6.196 35.332-15.601 47.725-27.993 39.434-39.434 37.328-105.151 37.182-107.89z" fill="url(#SVGID_1_)"/></g></g><g><g><path d="m165.973 240.967c8.284 0 15-6.716 15-15s-6.716-15-15-15-15 6.716-15 15 6.716 15 15 15zm180 0c8.284 0 15-6.716 15-15s-6.716-15-15-15-15 6.716-15 15 6.716 15 15 15zm-75.557-79.087c-3.691-12.92-25.195-12.92-28.887 0-43.309 156.275-45.557 153.768-45.557 169.087 0 33.091 26.924 60 60 60s60-26.909 60-60c.001-15.564-2.068-12.168-45.556-169.087zm-104.443 229.087c-8.291 0-15 6.709-15 15s6.709 15 15 15c8.262 0 15 6.724 15 15 0 8.291 6.709 15 15 15s15-6.709 15-15c0-24.815-20.186-45-45-45zm180 0c-24.814 0-45 20.186-45 45 0 8.291 6.709 15 15 15s15-6.709 15-15c0-8.276 6.738-15 15-15 8.291 0 15-6.709 15-15s-6.709-15-15-15z" fill="url(#SVGID_2_)"/></g></g></g></svg>